<?xml version="1.0" encoding="utf-8"?>
<!-- Generator: Adobe Illustrator 16.0.0, SVG Export Plug-In . SVG Version: 6.00 Build 0)  -->
<!DOCTYPE svg PUBLIC "-//W3C//DTD SVG 1.1//EN" "http://www.w3.org/Graphics/SVG/1.1/DTD/svg11.dtd">
<svg version="1.1" id="Layer_1" xmlns="http://www.w3.org/2000/svg" xmlns:xlink="http://www.w3.org/1999/xlink" x="0px" y="0px"
	 width="1335.416px" height="338.312px" viewBox="0 0 1335.416 338.312" enable-background="new 0 0 1335.416 338.312"
	 xml:space="preserve">
<path fill="#0D3182" d="M1282.279,91.817c-66.469,45.262-138.662,79.594-217.319,101.701c-50.9,14.306-102.818,23.39-155.719,28.078
	c-35.894,3.18-71.829,4.494-107.812,4.133c-28.978-0.293-57.953-1.592-86.899-2.981c-20.285-0.976-40.558-2.529-60.772-4.41
	c-34.802-3.231-69.545-7.002-104.329-10.399c-34.783-3.397-69.549-7.054-104.394-9.793c-35.179-2.77-70.413-5.293-105.68-6.562
	c-37.979-1.367-75.928,0.319-113.728,4.771c-34.485,4.058-191.522,19.819-295.627,149.819v84.106
	c43.332-0.147,201.435-0.163,244.766-0.166c232.658-0.016,465.316-0.027,697.978-0.019c172.995,0.007,345.991,0.052,518.984,0.077
	c4.231,0,8.462,0,13.687,0c0-5.544-0.002-9.872,0-14.199c0.015-230.517,0.027-117.135,0.041-347.65
	c0-2.828,0.516-69.094,0.211-71.891L1282.279,91.817z"/>
<g>
	<g>
		<g>
			<defs>
				<path id="SVGID_1_" d="M54.745,769.541c3.984,3.71,8.266,4.662,13.5,4.644c43.33-0.151,86.662-0.163,129.993-0.166
					c232.658-0.015,465.316-0.026,697.978-0.018c172.994,0.007,345.99,0.052,518.984,0.078c4.231,0.001,8.463,0.001,13.687,0.001
					c0-5.712-0.001-10.17,0-14.628c0.015-237.479,0.027-474.955,0.042-712.429c0-2.912,0.514-71.182,0.211-74.062l-123.386,98.266
					c-66.47,46.629-138.663,81.996-217.319,104.77c-50.902,14.737-102.82,24.096-155.72,28.926
					c-35.894,3.274-71.829,4.634-107.812,4.261c-28.978-0.304-57.952-1.642-86.899-3.074c-20.285-1.002-40.557-2.604-60.773-4.541
					c-34.801-3.332-69.545-7.215-104.328-10.715c-34.782-3.5-69.549-7.267-104.394-10.091c-35.178-2.852-70.413-5.45-105.679-6.76
					c-37.98-1.408-75.928,0.33-113.729,4.914c-34.484,4.183-68.259,11.106-101.07,22.293
					c-45.19,15.401-85.418,39.117-122.127,68.715"/>
			</defs>
			<clipPath id="SVGID_2_">
				<use xlink:href="#SVGID_1_"  overflow="visible"/>
			</clipPath>
			<path opacity="0.05" clip-path="url(#SVGID_2_)" fill="#FFFFFF" enable-background="new    " d="M472.557,189.586
				c-33.928,53.174-54.747,115.189-62.008,186.546c-1.832,18.016-3.331,36.009-4.386,53.972l-305.465,0.021
				c14.732-91.306,51.588-174.536,108.688-245.656C260.18,121.202,510.077,130.782,472.557,189.586z"/>
		</g>
	</g>
</g>
<g>
	<g>
		<g>
			<defs>
				<path id="SVGID_3_" d="M54.745,769.721c3.984,3.711,8.266,4.663,13.5,4.646c43.33-0.152,86.662-0.163,129.993-0.166
					c232.658-0.017,465.316-0.028,697.978-0.02c172.994,0.008,345.99,0.054,518.984,0.079c4.231,0.001,8.463,0.001,13.687,0.001
					c0-5.713-0.001-10.172,0-14.631c0.015-237.531,0.027-475.062,0.042-712.591c0-2.914,0.514-71.197,0.211-74.078l-123.386,98.287
					c-66.47,46.641-138.663,82.016-217.319,104.795c-50.902,14.74-102.82,24.103-155.72,28.935
					c-35.894,3.274-71.829,4.633-107.812,4.258c-28.978-0.301-57.952-1.642-86.899-3.074c-20.285-1.002-40.557-2.604-60.773-4.543
					c-34.801-3.332-69.545-7.215-104.328-10.717c-34.782-3.5-69.549-7.269-104.394-10.09c-35.178-2.854-70.413-5.453-105.679-6.765
					c-37.98-1.407-75.928,0.33-113.729,4.916c-34.484,4.183-68.259,11.108-101.07,22.297c-45.19,15.408-85.418,39.128-122.127,68.73
					c-33.814,27.27-63.84,57.801-86.284,94.813c-17.798,29.351-30.282,60.732-33.438,94.698"/>
			</defs>
			<clipPath id="SVGID_4_">
				<use xlink:href="#SVGID_3_"  overflow="visible"/>
			</clipPath>
			<path opacity="0.05" clip-path="url(#SVGID_4_)" fill="#FFFFFF" enable-background="new    " d="M572.898,197.438
				c7.625,45.303,21.584,76.039,38.5,120.044c15.595,40.571,33.843,78.056,54.603,112.607l-327,0.013
				c-45.664-77.12-71.9-162.018-82.086-253.006C254.778,158.022,572.898,197.438,572.898,197.438z"/>
		</g>
	</g>
</g>
<g>
	<path opacity="0.05" fill="#FFFFFF" enable-background="new    " d="M1009.309,201.239c72.596,49.37,156.558,85.366,250.2,109.844
		c56.025,14.645,112.572,22.002,169.4,25.039l-0.006,93.138l-334.49,0.86c22.885-9.33,45.635-18.489,67.855-27.987
		c-57.865-15.314-119.078-29.486-179.062-47.753c-107.623-32.799-207.091-79.633-295.364-144.887L1009.309,201.239z"/>
</g>
</svg>
